<?xml version="1.0" standalone="no"?>
<!DOCTYPE svg PUBLIC "-//W3C//DTD SVG 20010904//EN"
 "http://www.w3.org/TR/2001/REC-SVG-20010904/DTD/svg10.dtd">
<svg version="1.0" xmlns="http://www.w3.org/2000/svg"
 width="250.000000pt" height="250.000000pt" viewBox="0 0 250.000000 250.000000"
 preserveAspectRatio="xMidYMid meet">
<metadata>
Created by potrace 1.11, written by Peter Selinger 2001-2013
</metadata>
<g transform="translate(0.000000,250.000000) scale(0.100000,-0.100000)"
fill="#000000" stroke="none">
<path d="M1147 1995 c-1 -2 -33 -5 -72 -9 -155 -14 -235 -58 -235 -126 0 -84
128 -106 375 -65 168 28 170 28 185 10 18 -21 14 -74 -7 -97 -27 -31 -77 -39
-260 -43 -261 -7 -334 -14 -437 -44 -37 -11 -79 -27 -92 -36 -26 -17 -47 -49
-37 -58 3 -3 -20 -18 -52 -33 -64 -31 -134 -96 -159 -148 -44 -92 -55 -308
-22 -422 29 -100 123 -182 267 -235 43 -16 81 -29 84 -28 5 0 63 -7 130 -17
119 -16 582 -24 740 -12 44 3 127 16 185 27 336 69 453 189 445 453 -7 215
-55 307 -195 378 -45 23 -58 35 -63 57 -3 17 -16 34 -29 40 -184 88 -211 108
-254 188 -26 49 -82 135 -107 165 -6 8 -25 24 -42 34 -26 17 -51 20 -187 21
-87 1 -159 1 -161 0z"/>
</g>
</svg>
